# File created by Blade
# Date/Time:  Tue Jan 27 18:01:49 2015
# Frame Rate: 120.000 fps
#------------------------------------------------------
:FULLY-SPECIFIED
:DEGREES
2781
root -1.686188 31.928029 -6.536193 5.634650 16.158991 3.661869
Spine -5.157827 -15.682942 -5.211796
Head -1.310633 -49.023608 -2.286644
LeftShoulder -12.300349 14.862773 8.304423
LeftArm 22.131117 42.258702 -74.020591
LeftForeArm -2.240360 0.000000 11.528651
LeftHand -11.335080 -0.000000 -6.474806
LeftHandThumb1 -26.253704 0.000000 33.147579
RightShoulder -20.308961 22.861591 -54.176997
RightArm 59.193525 62.735068 61.203921
RightForeArm 24.164992 0.000000 24.570981
RightHand -16.340300 -0.000000 -5.916369
RightHandThumb1 -24.326973 -0.000000 -32.862282
LeftUpLeg -1.986544 -4.992140 -0.058029
LeftLeg 0.322852 -0.000000 -0.000000
LeftFoot -14.236420 12.678264 -24.495154
LeftToeBase 8.965056 -0.000000 -0.000000
RightUpLeg 2.903127 -8.675302 -2.812867
RightLeg -3.004175 -0.000000 0.000000
RightFoot -16.464068 -18.095693 11.141150
RightToeBase 5.403667 -0.000000 -0.000000
2782
root -1.689611 31.929551 -6.539380 5.631057 16.151854 3.656819
Spine -5.165085 -15.697492 -5.205869
Head -1.326208 -49.045325 -2.329302
LeftShoulder -12.275288 14.876311 8.291148
LeftArm 22.137310 42.228660 -74.011327
LeftForeArm -2.209379 -0.000000 11.538955
LeftHand -11.361646 -0.000000 -6.464341
LeftHandThumb1 -26.253704 0.000000 33.147579
RightShoulder -20.206865 22.838789 -54.129204
RightArm 59.324717 62.889118 61.611792
RightForeArm 24.332209 -0.000000 25.160572
RightHand -16.151482 -0.000000 -5.665234
RightHandThumb1 -24.326973 -0.000000 -32.862282
LeftUpLeg -1.991415 -4.990388 -0.050667
LeftLeg 0.313967 -0.000000 -0.000000
LeftFoot -14.209411 12.712808 -24.474518
LeftToeBase 8.942784 -0.000000 -0.000000
RightUpLeg 2.891298 -8.683524 -2.804570
RightLeg -2.994581 -0.000000 0.000000
RightFoot -16.454066 -18.068620 11.143675
RightToeBase 5.431780 -0.000000 -0.000000
2783
root -1.692852 31.931314 -6.542799 5.630635 16.145577 3.651731
Spine -5.174179 -15.714380 -5.195532
Head -1.344919 -49.070163 -2.388178
LeftShoulder -12.258698 14.870774 8.270793
LeftArm 22.132422 42.227088 -73.991720
LeftForeArm -2.201822 -0.000000 11.557714
LeftHand -11.401327 -0.000000 -6.447248
LeftHandThumb1 -26.253704 0.000000 33.147579
RightShoulder -19.910657 22.108435 -53.711969
RightArm 61.096631 63.512692 63.434684
RightForeArm 24.581024 -0.000000 25.815885
RightHand -15.955874 -0.000000 -5.293596
RightHandThumb1 -24.326973 -0.000000 -32.862282
LeftUpLeg -2.005903 -4.949987 -0.044467
LeftLeg 0.327581 -0.000000 -0.000000
LeftFoot -14.189466 12.687151 -24.479020
LeftToeBase 8.954571 -0.000000 -0.000000
RightUpLeg 2.882411 -8.663221 -2.795395
RightLeg -2.994379 -0.000000 0.000000
RightFoot -16.436792 -18.088239 11.141107
RightToeBase 5.410841 -0.000000 -0.000000
2784
root -1.696796 31.933163 -6.546585 5.625279 16.134000 3.640996
Spine -5.178047 -15.726060 -5.182849
Head -1.355708 -49.103606 -2.443054
LeftShoulder -12.227312 14.869604 8.250248
LeftArm 22.122828 42.219326 -73.971110
LeftForeArm -2.216569 0.000000 11.589452
LeftHand -11.433584 -0.000000 -6.439142
LeftHandThumb1 -26.253704 0.000000 33.147579
RightShoulder -19.760404 22.054333 -53.645232
RightArm 61.513869 63.802232 64.293949
RightForeArm 24.796629 -0.000000 26.706404
RightHand -15.668840 -0.000000 -4.887167
RightHandThumb1 -24.326973 -0.000000 -32.862282
LeftUpLeg -2.017596 -4.916803 -0.030515
LeftLeg 0.340105 -0.000000 -0.000000
LeftFoot -14.169423 12.671190 -24.477349
LeftToeBase 8.931404 -0.000000 -0.000000
RightUpLeg 2.863830 -8.659880 -2.778649
RightLeg -2.975818 -0.000000 0.000000
RightFoot -16.419565 -18.089781 11.127670
RightToeBase 5.411530 -0.000000 -0.000000
2785
root -1.700250 31.934679 -6.551131 5.619658 16.127741 3.643336
Spine -5.182702 -15.749097 -5.182056
Head -1.323701 -49.117986 -2.546076
LeftShoulder -12.184105 14.877798 8.230685
LeftArm 22.101943 42.179348 -73.964564
LeftForeArm -2.193223 0.000000 11.619244
LeftHand -11.441061 0.000000 -6.472833
LeftHandThumb1 -26.253704 0.000000 33.147579
RightShoulder -19.827516 23.143311 -54.134700
RightArm 59.802601 63.630880 63.599240
RightForeArm 25.046885 0.000000 27.827451
RightHand -15.251216 -0.000000 -4.171816
RightHandThumb1 -24.326973 -0.000000 -32.862282
LeftUpLeg -2.023383 -4.891953 -0.030282
LeftLeg 0.345107 -0.000000 -0.000000
LeftFoot -14.135008 12.666204 -24.456005
LeftToeBase 8.915492 -0.000000 -0.000000
RightUpLeg 2.857178 -8.642347 -2.777917
RightLeg -2.970924 -0.000000 0.000000
RightFoot -16.412967 -18.086959 11.150785
RightToeBase 5.397331 -0.000000 -0.000000
2786
root -1.704710 31.936474 -6.555445 5.609322 16.114624 3.634202
Spine -5.183788 -15.764491 -5.170017
Head -1.296067 -49.153070 -2.654850
LeftShoulder -12.135228 14.882701 8.202035
LeftArm 22.092769 42.172746 -73.925969
LeftForeArm -2.255718 -0.000000 11.652889
LeftHand -11.260618 -0.000000 -5.549615
LeftHandThumb1 -26.253704 0.000000 33.147579
RightShoulder -19.777970 23.797043 -54.386155
RightArm 58.950613 63.699752 63.602250
RightForeArm 25.273850 -0.000000 29.090905
RightHand -14.883212 -0.000000 -3.712852
RightHandThumb1 -24.326973 -0.000000 -32.862282
LeftUpLeg -2.038741 -4.827497 -0.022059
LeftLeg 0.375997 -0.000000 -0.000000
LeftFoot -14.122674 12.635766 -24.453621
LeftToeBase 8.909315 -0.000000 -0.000000
RightUpLeg 2.845804 -8.622114 -2.763653
RightLeg -2.957240 -0.000000 0.000000
RightFoot -16.392888 -18.094233 11.137542
RightToeBase 5.482684 -0.000000 -0.000000
2787
root -1.707458 31.938343 -6.560247 5.606610 16.117014 3.644680
Spine -5.177491 -15.789012 -5.181984
Head -1.293065 -49.213664 -2.744434
LeftShoulder -12.093161 14.861341 8.191392
LeftArm 22.065511 42.182983 -73.913522
LeftForeArm -2.277250 -0.000000 11.674386
LeftHand -11.292264 -0.000000 -5.480900
LeftHandThumb1 -26.253704 0.000000 33.147579
RightShoulder -19.578708 23.890757 -54.315634
RightArm 59.272854 64.097878 64.574411
RightForeArm 25.299686 0.000000 30.434196
RightHand -14.354664 0.000000 -3.126301
RightHandThumb1 -24.326973 -0.000000 -32.862282
LeftUpLeg -2.050233 -4.800859 -0.027282
LeftLeg 0.393067 -0.000000 -0.000000
LeftFoot -14.096030 12.594871 -24.464203
LeftToeBase 8.941452 -0.000000 -0.000000
RightUpLeg 2.837376 -8.632045 -2.766249
RightLeg -2.950673 -0.000000 0.000000
RightFoot -16.389836 -18.110320 11.128830
RightToeBase 5.424330 -0.000000 -0.000000
2788
root -1.713486 31.941088 -6.564452 5.590675 16.111860 3.620875
Spine -5.169784 -15.814643 -5.162575
Head -1.294496 -49.285084 -2.842441
LeftShoulder -12.068059 14.877224 8.166413
LeftArm 22.095108 42.205707 -73.852770
LeftForeArm -2.280475 -0.000000 11.704437
LeftHand -11.519994 -0.000000 -6.381043
LeftHandThumb1 -26.253704 0.000000 33.147579
RightShoulder -19.365575 23.924654 -54.175598
RightArm 59.783932 64.505871 65.714891
RightForeArm 25.310247 -0.000000 31.950084
RightHand -13.818089 -0.000000 -2.564334
RightHandThumb1 -24.326973 -0.000000 -32.862282
LeftUpLeg -2.056679 -4.779045 0.003819
LeftLeg 0.405101 -0.000000 -0.000000
LeftFoot -14.072042 12.583613 -24.474320
LeftToeBase 8.934839 -0.000000 -0.000000
RightUpLeg 2.830568 -8.618901 -2.738948
RightLeg -2.939756 -0.000000 0.000000
RightFoot -16.359420 -18.088750 11.143690
RightToeBase 5.424898 -0.000000 -0.000000
2789
root -1.718963 31.943612 -6.569375 5.578453 16.101909 3.611679
Spine -5.156950 -15.825899 -5.158253
Head -1.298597 -49.380401 -2.961538
LeftShoulder -12.030224 14.881235 8.130831
LeftArm 22.117937 42.214740 -73.777859
LeftForeArm -2.352608 -0.000000 11.715241
LeftHand -11.304369 -0.000000 -5.614538
LeftHandThumb1 -26.253704 0.000000 33.147579
RightShoulder -19.229891 24.236443 -54.156500
RightArm 59.575344 64.747549 66.247590
RightForeArm 25.181367 -0.000000 33.626123
RightHand -13.358875 -0.000000 -2.169695
RightHandThumb1 -24.326973 -0.000000 -32.862282
LeftUpLeg -2.060568 -4.755203 0.018513
LeftLeg 0.410815 -0.000000 -0.000000
LeftFoot -14.048824 12.570330 -24.488256
LeftToeBase 8.923966 -0.000000 -0.000000
RightUpLeg 2.817235 -8.610793 -2.723815
RightLeg -2.916213 -0.000000 0.000000
RightFoot -16.349981 -18.086061 11.155437
RightToeBase 5.520466 -0.000000 -0.000000
2790
root -1.722972 31.945828 -6.574621 5.570342 16.096304 3.606922
Spine -5.138730 -15.854452 -5.164475
Head -1.314014 -49.475895 -3.052500
LeftShoulder -12.017799 14.885306 8.109376
LeftArm 22.142704 42.221480 -73.730898
LeftForeArm -2.405098 -0.000000 11.732118
LeftHand -11.296881 -0.000000 -5.551875
LeftHandThumb1 -26.253704 0.000000 33.147579
RightShoulder -18.982421 24.297786 -54.028608
RightArm 59.813588 65.219138 67.294073
RightForeArm 25.186231 -0.000000 35.565253
RightHand -12.759273 -0.000000 -1.699338
RightHandThumb1 -24.326973 -0.000000 -32.862282
LeftUpLeg -2.073998 -4.738829 0.026318
LeftLeg 0.430735 -0.000000 -0.000000
LeftFoot -14.027903 12.558730 -24.500402
LeftToeBase 8.915884 -0.000000 -0.000000
RightUpLeg 2.807263 -8.618771 -2.713439
RightLeg -2.910087 -0.000000 0.000000
RightFoot -16.322219 -18.091924 11.121863
RightToeBase 5.438678 -0.000000 -0.000000
2791
root -1.727835 31.948135 -6.579820 5.558588 16.101126 3.606224
Spine -5.110686 -15.883828 -5.183475
Head -1.336549 -49.607016 -3.150507
LeftShoulder -11.990052 14.902449 8.087741
LeftArm 22.163411 42.205298 -73.675623
LeftForeArm -2.399051 -0.000000 11.775260
LeftHand -11.337604 -0.000000 -5.605000
LeftHandThumb1 -26.253704 0.000000 33.147579
RightShoulder -18.755374 24.332399 -53.871172
RightArm 60.265170 65.700711 68.623072
RightForeArm 24.961822 -0.000000 37.761831
RightHand -12.209568 0.000000 -1.226267
RightHandThumb1 -24.326973 -0.000000 -32.862282
LeftUpLeg -2.072959 -4.787794 0.034145
LeftLeg 0.418887 -0.000000 -0.000000
LeftFoot -14.008544 12.624612 -24.508712
LeftToeBase 8.915418 -0.000000 -0.000000
RightUpLeg 2.801814 -8.623096 -2.706495
RightLeg -2.898383 -0.000000 0.000000
RightFoot -16.316055 -18.087800 11.137254
RightToeBase 5.456630 -0.000000 -0.000000
